# xmcd CD database file
#
# Track frame offsets:
#	150
#	22062
#	55745
#	68607
#	82253
#	97083
#	136553
#	156949
#	185983
#	216169
#	248207
#	284395
#	297767
#
# Disc length: 4168 seconds
#
# Revision: 0
# Processed by: cddbd v1.5.1PL0 Copyright (c) Steve Scherf et al.
# Submitted via: CDex 1.51
#
DISCID=c510460d
DTITLE=Omni - Swing Journal presents gold disc album Piano Trio
DYEAR=1900
DGENRE=Jazz
TTITLE0=いつか王子様が（ビル・エヴァンス）
TTITLE1=テンペランス（ウィントン・ケリー）
TTITLE2=四月の思い出（バド・パウエル）
TTITLE3=ミスティ（レイ・ブライアント）
TTITLE4=リラクシン・アット・カマリロ（トミー・フラナガン）
TTITLE5=ウェル・ユー・ニードント（ゴンサロ・ルバルカバ）
TTITLE6=テンダリー（ザ・スリー・サウンズ）
TTITLE7=マトリックス（チック・コリア）
TTITLE8=危険な関係のブルース（デューク・ジョーダン）
TTITLE9=ザ・ジャングラー（大西順子）
TTITLE10=ベサメ・ムーチョ（スティーヴ・キューン）
TTITLE11=ジャスト・ワン・オブ・ゾーズ・シングス（クロード・ウィリアムソン）
TTITLE12=アゲイン（エディ・ヒギンズ）
EXTD=
EXTT0=
EXTT1=
EXTT2=
EXTT3=
EXTT4=
EXTT5=
EXTT6=
EXTT7=
EXTT8=
EXTT9=
EXTT10=
EXTT11=
EXTT12=
PLAYORDER=
